<svg width="232" height="43" viewBox="0 0 232 43" fill="none" xmlns="http://www.w3.org/2000/svg">
<path d="M0.9 0.999997H27.24L33.24 7V18.76L30.84 21.22L35.1 25.54V36.52L28.62 43H0.9V0.999997ZM23.04 18.58L25.2 16.42V9.94L23.1 7.84H8.88V18.58H23.04ZM24.48 36.16L27.06 33.58V27.7L24.48 25.12H8.88V36.16H24.48ZM40.4953 6.88V3.04L43.2553 0.279999H47.4553L50.2153 3.04V6.88L47.4553 9.64H43.2553L40.4953 6.88ZM41.3953 13.12H49.3153V43H41.3953V13.12ZM57.143 13.12H64.463V18.1L69.443 13.12H79.103L85.763 19.78V43H77.843V21.94L75.803 19.84H70.763L65.063 25.6V43H57.143V13.12ZM127.404 0.999997H154.284L161.484 8.2V35.8L154.284 43H127.404V0.999997ZM150.264 36.04L153.324 32.98V11.02L150.264 7.96H135.564V36.04H150.264ZM167.813 36.88V19.36L173.993 13.12H190.853L197.093 19.36V30.7H175.733V34.54L177.653 36.52H187.433L189.233 34.66V33.1H197.033V37L191.093 43H173.873L167.813 36.88ZM189.173 25.18V21.7L187.133 19.6H177.773L175.733 21.7V25.18H189.173ZM202.793 36.88V19.24L208.853 13.12H225.293L231.473 19.36V24.88H223.553V21.94L221.453 19.84H212.813L210.713 21.94V34.18L212.813 36.28H221.453L223.553 34.18V31.24H231.473V36.76L225.293 43H208.853L202.793 36.88Z" fill="white"/>
<path d="M91.3908 33.82L112.991 14.2V9.94L111.011 7.96H101.291L99.3108 9.94V14.2H91.1508V7.48L97.6308 0.999997H114.671L121.151 7.48V16.6L99.8508 35.56V36.16H121.391V43H91.3908V33.82Z" fill="#1F2729"/>
</svg>
